<svg xmlns="http://www.w3.org/2000/svg" version="1.1" xmlns:xlink="http://www.w3.org/1999/xlink" xmlns:svgjs="http://svgjs.dev/svgjs" width="1000" height="623" viewBox="0 0 1000 623"><g transform="matrix(1,0,0,1,-0.6060529642521715,0.2522267206477409)"><svg viewBox="0 0 396 247" data-background-color="#ffffff" preserveAspectRatio="xMidYMid meet" height="623" width="1000" xmlns="http://www.w3.org/2000/svg" xmlns:xlink="http://www.w3.org/1999/xlink"><g id="tight-bounds" transform="matrix(1,0,0,1,0.23999697384385854,-0.09999999999999432)"><svg viewBox="0 0 395.52 247.2" height="247.2" width="395.52"><g><svg></svg></g><g><svg viewBox="0 0 395.52 247.2" height="247.2" width="395.52"><g><g><path xmlns="http://www.w3.org/2000/svg" d="M85.301 247.2l28.262-66.444 18.998 0.001-28.11 66.443zM190.448 0h15.32l28.075 66.444-17.044-0.001-18.691-44.857-19.052 44.857-16.869 0zM310.219 247.2h-18.802l-28.11-66.444 18.837 0.001z" fill="#2b2b2b" fill-rule="nonzero" stroke="none" stroke-width="1" stroke-linecap="butt" stroke-linejoin="miter" stroke-miterlimit="10" stroke-dasharray="" stroke-dashoffset="0" font-family="none" font-weight="none" font-size="none" text-anchor="none" style="mix-blend-mode: normal" data-fill-palette-color="tertiary"></path></g></g><g transform="matrix(1,0,0,1,0,80.24838824877435)"><svg viewBox="0 0 395.52 86.70322350245128" height="86.70322350245128" width="395.52"><g><svg viewBox="0 0 564.1193354403981 123.66243128727528" height="86.70322350245128" width="395.52"><g><rect width="7.521403404043479" height="123.66243128727528" x="141.38839432943453" y="0" fill="#2b2b2b" opacity="1" stroke-width="0" stroke="transparent" fill-opacity="1" class="rect-o-0" data-fill-palette-color="primary" rx="1%" id="o-0" data-palette-color="#2b2b2b"></rect></g><g transform="matrix(1,0,0,1,168.5993354403981,0.307617988276796)"><svg viewBox="0 0 395.52 123.04719531072169" height="123.04719531072169" width="395.52"><g id="textblocktransform"><svg viewBox="0 0 395.52 123.04719531072169" height="123.04719531072169" width="395.52" id="textblock"><g><svg viewBox="0 0 395.52 83.40338580338579" height="83.40338580338579" width="395.52"><g transform="matrix(1,0,0,1,0,0)"><svg width="395.52" viewBox="0.699999988079071 -35.5 168.33999633789062 35.5" height="83.40338580338579" data-palette-color="#2b2b2b"><path d="M0.7 0L15.8-35.5 18-35.5 33 0 30.3 0 25.35-11.7 8.4-11.7 3.45 0 0.7 0ZM9-13.8L24.65-13.8 16.9-32.4 9-13.8ZM40.95 0L38.4 0 38.4-35.5 53.15-35.5Q55.45-35.5 57.32-34.55 59.2-33.6 60.57-32.02 61.95-30.45 62.72-28.5 63.5-26.55 63.5-24.5L63.5-24.5Q63.5-21.85 62.45-19.55 61.4-17.25 59.52-15.7 57.65-14.15 55.15-13.8L55.15-13.8 64 0 61.05 0 52.45-13.4 40.95-13.4 40.95 0ZM40.95-33.2L40.95-15.75 53.4-15.75Q55.7-15.75 57.4-17 59.1-18.25 60.02-20.25 60.95-22.25 60.95-24.5L60.95-24.5Q60.95-26.8 59.87-28.78 58.8-30.75 57.02-31.98 55.25-33.2 53.05-33.2L53.05-33.2 40.95-33.2ZM95.2-35.5L95.2-33.2 82.2-33.2 82.2 0 79.65 0 79.65-33.2 66.65-33.2 66.65-35.5 95.2-35.5ZM103.24 0L100.69 0 100.69-35.5 103.24-35.5 103.24 0ZM115.09 0L112.54 0 112.54-35.5 135.64-35.5 135.64-33.2 115.09-33.2 115.09-19.1 132.54-19.1 132.54-16.9 115.09-16.9 115.09 0ZM138.54-35.5L141.34-35.5 153.74-15.85 166.19-35.5 169.04-35.5 155.04-13.4 155.04 0 152.49 0 152.49-13.5 138.54-35.5Z" opacity="1" transform="matrix(1,0,0,1,0,0)" fill="#2b2b2b" class="undefined-text-0" data-fill-palette-color="primary" id="text-0"></path></svg></g></svg></g><g transform="matrix(1,0,0,1,0,103.0929235103059)"><svg viewBox="0 0 232.209792 19.9542718004158" height="19.9542718004158" width="232.209792"><g transform="matrix(1,0,0,1,0,0)"><svg width="232.209792" viewBox="0.550000011920929 -38.650001525878906 577.1300048828125 49.60000228881836" height="19.9542718004158" data-palette-color="#cc881b"><path d="M13.35-36.5L18.25-36.5 31 0 24.9 0 20.95-11.65 9.45-11.65 5.45 0 0.55 0 13.35-36.5ZM19.6-15.7L15.25-29.3 10.8-15.7 19.6-15.7ZM33.75-24.8L39-25.3Q40-23 40.2-20.4L40.2-20.4Q41.45-22.5 43.67-23.9 45.9-25.3 48.35-25.3L48.35-25.3 47.35-20.25Q45.05-20.25 43.35-19.05 41.65-17.85 40.25-15.8L40.25-15.8 40.25 0 35.35 0 35.35-18.05Q35.35-19.05 35.2-20.3 35.05-21.55 34.7-22.75 34.35-23.95 33.75-24.8L33.75-24.8ZM56.95-32L60.5-32Q60.15-30.3 59.9-28.45 59.65-26.6 59.55-24.85L59.55-24.85 65.84-24.85 65-21.35 59.55-21.35 59.55-6.35Q59.55-5.6 59.72-4.83 59.9-4.05 60.42-3.6 60.95-3.15 62-3.15L62-3.15Q62.8-3.15 63.6-3.3 64.4-3.45 65.15-3.65L65.15-3.65 65.84-0.45Q64.59-0.05 63.27 0.25 61.95 0.55 60.5 0.55L60.5 0.55Q57.3 0.55 55.95-1.07 54.6-2.7 54.6-5.85L54.6-5.85 54.6-21.35 50.7-21.35 50.7-24.2Q52.75-24.25 54-25.53 55.25-26.8 55.95-28.6 56.65-30.4 56.95-32L56.95-32ZM76.04-33.5L76.04-33.5Q76.04-32.1 75.09-31.1 74.14-30.1 72.69-30.1L72.69-30.1Q71.29-30.1 70.32-31.1 69.34-32.1 69.34-33.5L69.34-33.5Q69.34-34.9 70.32-35.88 71.29-36.85 72.69-36.85L72.69-36.85Q74.09-36.85 75.07-35.88 76.04-34.9 76.04-33.5ZM69.64-24.85L75.19-24.85 75.19 0 70.24 0 70.24-22 69.64-24.85ZM94.29-38.65L94.29-38.65Q95.54-38.65 96.79-38.38 98.04-38.1 99.14-37.4L99.14-37.4 97.84-33.9Q97.19-34.45 96.24-34.77 95.29-35.1 94.44-35.1L94.44-35.1Q92.49-35.1 91.32-34.27 90.14-33.45 89.52-32 88.89-30.55 88.67-28.73 88.44-26.9 88.44-24.85L88.44-24.85 95.14-24.85 94.14-21.35 88.44-21.35 88.44 0 83.54 0 83.54-21.35 79.64-21.35 79.64-24.35Q80.39-24.45 81.24-24.53 82.09-24.6 82.77-25.03 83.44-25.45 83.64-26.45L83.64-26.45Q84.09-28.65 84.37-30.18 84.64-31.7 85.22-32.95 85.79-34.2 87.09-35.65L87.09-35.65Q88.39-37.05 90.24-37.85 92.09-38.65 94.29-38.65ZM93.69-24.85L99.04-24.85Q100.14-21.6 101.31-18.38 102.49-15.15 103.59-11.75L103.59-11.75Q103.99-10.45 104.39-9.03 104.79-7.6 105.19-6.25L105.19-6.25Q105.54-7.6 105.94-9.03 106.34-10.45 106.79-11.75L106.79-11.75Q107.89-15.15 109.04-18.38 110.19-21.6 111.29-24.85L111.29-24.85 115.89-24.85 107.04 0.1Q106.49 1.8 105.59 3.7 104.69 5.6 103.46 7.23 102.24 8.85 100.61 9.9 98.99 10.95 96.94 10.95L96.94 10.95 95.04 10.95 95.04 7.2Q95.29 7.25 95.49 7.25 95.69 7.25 95.94 7.25L95.94 7.25Q97.94 7.25 99.24 6.05 100.54 4.85 101.39 3.15 102.24 1.45 102.74-0.15L102.74-0.15 93.69-24.85ZM126.83-24.85L132.18-24.85Q133.28-21.6 134.46-18.38 135.63-15.15 136.73-11.75L136.73-11.75Q137.13-10.45 137.53-9.03 137.93-7.6 138.33-6.25L138.33-6.25Q138.68-7.6 139.08-9.03 139.48-10.45 139.93-11.75L139.93-11.75Q141.03-15.15 142.18-18.38 143.33-21.6 144.43-24.85L144.43-24.85 149.03-24.85 140.18 0.1Q139.63 1.8 138.73 3.7 137.83 5.6 136.61 7.23 135.38 8.85 133.76 9.9 132.13 10.95 130.08 10.95L130.08 10.95 128.18 10.95 128.18 7.2Q128.43 7.25 128.63 7.25 128.83 7.25 129.08 7.25L129.08 7.25Q131.08 7.25 132.38 6.05 133.68 4.85 134.53 3.15 135.38 1.45 135.88-0.15L135.88-0.15 126.83-24.85ZM162.13 0.65L162.13 0.65Q158.43 0.65 155.88-1.15 153.33-2.95 152.01-5.88 150.68-8.8 150.68-12.25L150.68-12.25Q150.68-15.75 152.08-18.75 153.48-21.75 156.13-23.6 158.78-25.45 162.43-25.45L162.43-25.45Q166.18-25.45 168.73-23.7 171.28-21.95 172.58-19 173.88-16.05 173.88-12.55L173.88-12.55Q173.88-9.1 172.51-6.08 171.13-3.05 168.51-1.2 165.88 0.65 162.13 0.65ZM162.18-2.9L162.18-2.9Q164.03-2.9 165.28-3.8 166.53-4.7 167.26-6.15 167.98-7.6 168.28-9.25 168.58-10.9 168.58-12.4L168.58-12.4Q168.58-13.95 168.31-15.6 168.03-17.25 167.38-18.7 166.73-20.15 165.51-21.03 164.28-21.9 162.38-21.9L162.38-21.9Q160.53-21.9 159.31-21 158.08-20.1 157.36-18.65 156.63-17.2 156.33-15.53 156.03-13.85 156.03-12.4L156.03-12.4Q156.03-10.95 156.31-9.3 156.58-7.65 157.28-6.18 157.98-4.7 159.18-3.8 160.38-2.9 162.18-2.9ZM178.83-24.85L184.43-24.85 184.43-9.35Q184.43-8.05 184.65-6.68 184.88-5.3 185.68-4.4 186.48-3.5 188.18-3.5L188.18-3.5Q189.83-3.5 191.23-4.2 192.63-4.9 193.48-6.2 194.33-7.5 194.33-9.2L194.33-9.2 194.33-22Q194.33-22.05 194.18-22.7 194.03-23.35 193.9-24.05 193.78-24.75 193.73-24.85L193.73-24.85 199.33-24.85 199.33-5.5Q199.33-4.4 199.68-3.9 200.03-3.4 200.78-3.4L200.78-3.4Q201.48-3.4 202.68-3.85L202.68-3.85 203.63-0.85Q202.58-0.3 201.3 0.08 200.03 0.45 198.83 0.45L198.83 0.45Q197.43 0.45 196.3-0.3 195.18-1.05 194.83-2.95L194.83-2.95Q193.33-1.4 191.28-0.38 189.23 0.65 186.98 0.65L186.98 0.65Q184.18 0.65 182.53-0.48 180.88-1.6 180.15-3.58 179.43-5.55 179.43-8.15L179.43-8.15 179.43-22 178.83-24.85ZM205.58-24.8L210.83-25.3Q211.83-23 212.03-20.4L212.03-20.4Q213.28-22.5 215.5-23.9 217.73-25.3 220.18-25.3L220.18-25.3 219.18-20.25Q216.88-20.25 215.18-19.05 213.48-17.85 212.08-15.8L212.08-15.8 212.08 0 207.18 0 207.18-18.05Q207.18-19.05 207.03-20.3 206.88-21.55 206.53-22.75 206.18-23.95 205.58-24.8L205.58-24.8ZM232.42-24.85L237.57-24.85 241.47-11.75Q241.77-10.85 241.92-9.93 242.07-9 242.27-7.9L242.27-7.9Q242.47-9 242.62-9.9 242.77-10.8 243.07-11.7L243.07-11.7 247.22-24.85 251.22-24.85 255.17-11.75Q255.47-10.85 255.6-9.95 255.72-9.05 255.92-7.9L255.92-7.9Q256.12-9.05 256.3-9.95 256.47-10.85 256.72-11.75L256.72-11.75 260.82-24.85 265.12-24.85 257.27 0.25 253.57 0.25Q252.72-2.6 251.85-5.3 250.97-8 250.2-10.83 249.42-13.65 248.72-16.85L248.72-16.85Q247.97-13.65 247.15-10.83 246.32-8 245.42-5.3 244.52-2.6 243.57 0.25L243.57 0.25 239.82 0.25 232.42-24.85ZM278.02 0.65L278.02 0.65Q274.32 0.65 271.77-1.15 269.22-2.95 267.89-5.88 266.57-8.8 266.57-12.25L266.57-12.25Q266.57-15.75 267.97-18.75 269.37-21.75 272.02-23.6 274.67-25.45 278.32-25.45L278.32-25.45Q282.07-25.45 284.62-23.7 287.17-21.95 288.47-19 289.77-16.05 289.77-12.55L289.77-12.55Q289.77-9.1 288.39-6.08 287.02-3.05 284.39-1.2 281.77 0.65 278.02 0.65ZM278.07-2.9L278.07-2.9Q279.92-2.9 281.17-3.8 282.42-4.7 283.14-6.15 283.87-7.6 284.17-9.25 284.47-10.9 284.47-12.4L284.47-12.4Q284.47-13.95 284.19-15.6 283.92-17.25 283.27-18.7 282.62-20.15 281.39-21.03 280.17-21.9 278.27-21.9L278.27-21.9Q276.42-21.9 275.19-21 273.97-20.1 273.24-18.65 272.52-17.2 272.22-15.53 271.92-13.85 271.92-12.4L271.92-12.4Q271.92-10.95 272.19-9.3 272.47-7.65 273.17-6.18 273.87-4.7 275.07-3.8 276.27-2.9 278.07-2.9ZM293.62-24.8L298.87-25.3Q299.87-23 300.07-20.4L300.07-20.4Q301.32-22.5 303.54-23.9 305.77-25.3 308.22-25.3L308.22-25.3 307.22-20.25Q304.92-20.25 303.22-19.05 301.52-17.85 300.12-15.8L300.12-15.8 300.12 0 295.22 0 295.22-18.05Q295.22-19.05 295.07-20.3 294.92-21.55 294.57-22.75 294.22-23.95 293.62-24.8L293.62-24.8ZM312.01-38.25L317.61-38.25 317.61 0 312.61 0 312.61-35.45 312.01-38.25ZM334.61-25.4L334.61-25.4Q336.16-25.4 337.81-24.93 339.46-24.45 340.61-23.45L340.61-23.45Q340.56-24.25 340.56-24.9 340.56-25.55 340.56-26.3L340.56-26.3 340.56-35.4 339.81-38.25 345.46-38.25 345.46-7.15Q345.46-6.1 345.59-4.8 345.71-3.5 346.04-2.27 346.36-1.05 346.86-0.1L346.86-0.1 341.76 0.45Q341.46-0.35 341.24-1.15 341.01-1.95 340.91-2.8L340.91-2.8Q339.71-1.15 337.74-0.25 335.76 0.65 333.76 0.65L333.76 0.65Q331.11 0.65 329.16-0.45 327.21-1.55 325.91-3.43 324.61-5.3 323.96-7.58 323.31-9.85 323.31-12.2L323.31-12.2Q323.31-15.7 324.56-18.73 325.81-21.75 328.31-23.58 330.81-25.4 334.61-25.4ZM334.91-21.65L334.91-21.65Q333.06-21.65 331.86-20.8 330.66-19.95 329.94-18.57 329.21-17.2 328.91-15.6 328.61-14 328.61-12.5L328.61-12.5Q328.61-10.95 328.94-9.35 329.26-7.75 330.04-6.38 330.81-5 332.09-4.17 333.36-3.35 335.21-3.35L335.21-3.35Q336.76-3.35 338.19-4.28 339.61-5.2 340.56-6.35L340.56-6.35 340.56-14.65Q340.56-16.5 340.01-18.1 339.46-19.7 338.21-20.68 336.96-21.65 334.91-21.65ZM360.91-24.85L366.06-24.85 369.96-11.75Q370.26-10.85 370.41-9.93 370.56-9 370.76-7.9L370.76-7.9Q370.96-9 371.11-9.9 371.26-10.8 371.56-11.7L371.56-11.7 375.71-24.85 379.71-24.85 383.66-11.75Q383.96-10.85 384.08-9.95 384.21-9.05 384.41-7.9L384.41-7.9Q384.61-9.05 384.78-9.95 384.96-10.85 385.21-11.75L385.21-11.75 389.31-24.85 393.61-24.85 385.76 0.25 382.06 0.25Q381.21-2.6 380.33-5.3 379.46-8 378.68-10.83 377.91-13.65 377.21-16.85L377.21-16.85Q376.46-13.65 375.63-10.83 374.81-8 373.91-5.3 373.01-2.6 372.06 0.25L372.06 0.25 368.31 0.25 360.91-24.85ZM403.3-33.5L403.3-33.5Q403.3-32.1 402.35-31.1 401.4-30.1 399.95-30.1L399.95-30.1Q398.55-30.1 397.58-31.1 396.6-32.1 396.6-33.5L396.6-33.5Q396.6-34.9 397.58-35.88 398.55-36.85 399.95-36.85L399.95-36.85Q401.35-36.85 402.33-35.88 403.3-34.9 403.3-33.5ZM396.9-24.85L402.45-24.85 402.45 0 397.5 0 397.5-22 396.9-24.85ZM413.1-32L416.65-32Q416.3-30.3 416.05-28.45 415.8-26.6 415.7-24.85L415.7-24.85 422-24.85 421.15-21.35 415.7-21.35 415.7-6.35Q415.7-5.6 415.88-4.83 416.05-4.05 416.58-3.6 417.1-3.15 418.15-3.15L418.15-3.15Q418.95-3.15 419.75-3.3 420.55-3.45 421.3-3.65L421.3-3.65 422-0.45Q420.75-0.05 419.43 0.25 418.1 0.55 416.65 0.55L416.65 0.55Q413.45 0.55 412.1-1.07 410.75-2.7 410.75-5.85L410.75-5.85 410.75-21.35 406.85-21.35 406.85-24.2Q408.9-24.25 410.15-25.53 411.4-26.8 412.1-28.6 412.8-30.4 413.1-32L413.1-32ZM425.8-38.25L431.35-38.25 431.35-22.15Q432.85-23.55 434.72-24.53 436.6-25.5 438.75-25.5L438.75-25.5Q441.55-25.5 443.17-24.38 444.8-23.25 445.5-21.28 446.2-19.3 446.2-16.7L446.2-16.7 446.2 0 441.3 0 441.3-15.7Q441.3-17.05 441.1-18.35 440.9-19.65 440.12-20.53 439.35-21.4 437.55-21.4L437.55-21.4Q436.55-21.4 435.37-20.9 434.2-20.4 433.15-19.73 432.1-19.05 431.35-18.3L431.35-18.3 431.35 0 426.45 0 426.45-35.4 425.8-38.25ZM474.64-25.4L474.64-25.4Q476.19-25.4 477.84-24.93 479.49-24.45 480.64-23.45L480.64-23.45Q480.59-24.25 480.59-24.9 480.59-25.55 480.59-26.3L480.59-26.3 480.59-35.4 479.84-38.25 485.49-38.25 485.49-7.15Q485.49-6.1 485.62-4.8 485.74-3.5 486.07-2.27 486.39-1.05 486.89-0.1L486.89-0.1 481.79 0.45Q481.49-0.35 481.27-1.15 481.04-1.95 480.94-2.8L480.94-2.8Q479.74-1.15 477.77-0.25 475.79 0.65 473.79 0.65L473.79 0.65Q471.14 0.65 469.19-0.45 467.24-1.55 465.94-3.43 464.64-5.3 463.99-7.58 463.34-9.85 463.34-12.2L463.34-12.2Q463.34-15.7 464.59-18.73 465.84-21.75 468.34-23.58 470.84-25.4 474.64-25.4ZM474.94-21.65L474.94-21.65Q473.09-21.65 471.89-20.8 470.69-19.95 469.97-18.57 469.24-17.2 468.94-15.6 468.64-14 468.64-12.5L468.64-12.5Q468.64-10.95 468.97-9.35 469.29-7.75 470.07-6.38 470.84-5 472.12-4.17 473.39-3.35 475.24-3.35L475.24-3.35Q476.79-3.35 478.22-4.28 479.64-5.2 480.59-6.35L480.59-6.35 480.59-14.65Q480.59-16.5 480.04-18.1 479.49-19.7 478.24-20.68 476.99-21.65 474.94-21.65ZM501.99-25.45L501.99-25.45Q505.99-25.45 508.07-23.35 510.14-21.25 510.14-17.3L510.14-17.3 510.14-5.45Q510.14-4.25 510.57-3.83 510.99-3.4 511.59-3.4L511.59-3.4Q512.04-3.4 512.54-3.53 513.04-3.65 513.49-3.85L513.49-3.85 514.44-0.85Q513.49-0.3 512.19 0.08 510.89 0.45 509.69 0.45L509.69 0.45Q508.14 0.45 507.07-0.3 505.99-1.05 505.69-2.95L505.69-2.95Q504.24-1.25 502.32-0.35 500.39 0.55 498.19 0.55L498.19 0.55Q495.24 0.55 493.24-1.18 491.24-2.9 491.24-5.95L491.24-5.95Q491.24-8.7 492.57-10.43 493.89-12.15 496.04-13.03 498.19-13.9 500.62-14.23 503.04-14.55 505.19-14.55L505.19-14.55 505.19-17.45Q505.19-19.5 504.34-20.65 503.49-21.8 501.29-21.8L501.29-21.8Q499.49-21.8 497.74-20.98 495.99-20.15 494.44-18.9L494.44-18.9 492.24-22.25Q494.34-23.85 496.87-24.65 499.39-25.45 501.99-25.45ZM505.19-9.55L505.19-10.95Q503.99-10.95 502.47-10.83 500.94-10.7 499.54-10.28 498.14-9.85 497.24-8.9 496.34-7.95 496.34-6.3L496.34-6.3Q496.34-4.85 497.39-4.13 498.44-3.4 499.84-3.4L499.84-3.4Q501.49-3.4 502.67-4.33 503.84-5.25 504.52-6.65 505.19-8.05 505.19-9.55L505.19-9.55ZM517.19-38.25L522.79-38.25 522.79 0 517.79 0 517.79-35.45 517.19-38.25ZM529.73-38.25L535.33-38.25 535.33 0 530.33 0 530.33-35.45 529.73-38.25ZM541.33-10.9L541.33-15.1 552.68-15.1 552.68-10.9 541.33-10.9ZM568.18-25.5L568.18-25.5Q571.38-25.5 573.5-24.15 575.63-22.8 576.65-20.55 577.68-18.3 577.68-15.5L577.68-15.5Q577.68-14.75 577.6-13.95 577.53-13.15 577.38-12.35L577.38-12.35 561.83-12.35Q561.83-7.9 563.83-5.5 565.83-3.1 569.18-3.1L569.18-3.1Q570.63-3.1 572.23-3.58 573.83-4.05 575.58-5L575.58-5 577.18-2.15Q575.43-0.75 573.08-0.08 570.73 0.6 568.53 0.6L568.53 0.6Q564.63 0.6 561.98-1.15 559.33-2.9 557.95-5.8 556.58-8.7 556.58-12.2L556.58-12.2Q556.58-14.75 557.33-17.13 558.08-19.5 559.55-21.4 561.03-23.3 563.18-24.4 565.33-25.5 568.18-25.5ZM567.83-21.95L567.83-21.95Q566.18-21.95 564.95-21.03 563.73-20.1 563-18.68 562.28-17.25 562.08-15.8L562.08-15.8 572.53-15.8Q572.68-17.6 572.15-19 571.63-20.4 570.53-21.18 569.43-21.95 567.83-21.95Z" opacity="1" transform="matrix(1,0,0,1,0,0)" fill="#cc881b" class="undefined-text-1" data-fill-palette-color="secondary" id="text-1"></path></svg></g></svg></g></svg></g></svg></g><g transform="matrix(1,0,0,1,0,0.307617988276796)"><svg viewBox="0 0 121.69885662251443 123.04719531072169" height="123.04719531072169" width="121.69885662251443"><g><svg xmlns="http://www.w3.org/2000/svg" xmlns:xlink="http://www.w3.org/1999/xlink" version="1.1" x="0" y="0" viewBox="2.0929999351501465 19.299999237060547 93.95899963378906 95" enable-background="new 0 16.75 100 100" xml:space="preserve" height="123.04719531072169" width="121.69885662251443" class="icon-icon-0" data-fill-palette-color="accent" id="icon-0"><path d="M88.702 32.132c-0.226-0.068-0.452-0.135-0.683-0.188l-2.272-0.521 0.52 2.273c0.053 0.228 0.087 0.454 0.118 0.682 0.052 0.37 0.077 0.69 0.077 0.982v61.929c0 4.093-3.33 7.423-7.423 7.423h-61.93c-0.289 0-0.61-0.025-0.982-0.077-0.227-0.031-0.453-0.066-0.681-0.118l-2.272-0.521 0.521 2.272c0.053 0.232 0.119 0.459 0.188 0.685 1.322 4.394 5.296 7.347 9.892 7.347h61.93c5.705 0 10.347-4.642 10.347-10.347v-61.93C96.05 37.429 93.097 33.454 88.702 32.132zM93.126 103.953c0 4.092-3.331 7.423-7.423 7.423h-61.93c-2.719 0-5.14-1.42-6.446-3.74h61.712c5.705 0 10.347-4.642 10.347-10.347V35.577c2.32 1.308 3.74 3.729 3.74 6.447V103.953z" fill="#f4a424" data-fill-palette-color="accent"></path><polygon points="50.927,65.715 51.062,65.715 51.632,65.715 52.205,65.715 50.993,60.061 50.965,59.919 50.927,60.113   50.927,60.242 50.927,60.372 50.353,63.041 49.783,65.715 50.353,65.715 " fill="#f4a424" data-fill-palette-color="accent"></polygon><path d="M53.278 68.432h-1.109-1.107-0.135H49.82h-1.111l-4.176 11.591c0 0 0.099-0.055 0.275-0.139 0.003 0 0.008-0.004 0.014-0.007 0.181-0.087 0.447-0.209 0.781-0.341 0.007-0.004 0.014-0.007 0.022-0.01 0.127-0.051 0.27-0.102 0.416-0.156 0.015-0.007 0.03-0.013 0.045-0.016 0.132-0.049 0.267-0.095 0.409-0.14 0.083-0.027 0.168-0.054 0.255-0.078 0.105-0.033 0.202-0.063 0.311-0.095 0.199-0.058 0.405-0.111 0.623-0.166 0.724-0.172 1.542-0.308 2.416-0.356 0.27-0.012 0.544-0.023 0.825-0.018 0.022 0 0.046-0.003 0.066 0 0.023-0.003 0.047 0 0.068 0 0.278-0.006 0.551 0.006 0.826 0.018 0.581 0.034 1.144 0.104 1.665 0.196 0.004 0.004 0.008 0.004 0.016 0.004 0.255 0.048 0.495 0.103 0.734 0.156 0.214 0.055 0.425 0.108 0.623 0.166 0.109 0.031 0.206 0.062 0.307 0.095 0.088 0.024 0.174 0.051 0.256 0.078 0.143 0.045 0.281 0.091 0.409 0.14 0.016 0.003 0.029 0.009 0.046 0.016 0.15 0.055 0.292 0.105 0.42 0.156 0.008 0.003 0.016 0.006 0.021 0.01 0.335 0.132 0.598 0.254 0.781 0.341 0.004 0.003 0.007 0.007 0.015 0.007 0.176 0.084 0.271 0.139 0.271 0.139l-2.086-5.796L53.278 68.432z" fill="#f4a424" data-fill-palette-color="accent"></path><path d="M77.612 19.3H6.29c-2.318 0-4.197 1.879-4.197 4.198v71.322c0 2.318 1.879 4.197 4.197 4.197h1.567 1.158 6.3 1.11 61.188c2.317 0 4.197-1.879 4.197-4.197V33.471v-1.11-6.34-1.152-1.372C81.81 21.179 79.93 19.3 77.612 19.3zM18.756 46.905c-1.249 0-2.421-0.323-3.442-0.885-2.204-1.216-3.697-3.559-3.697-6.253 0-3.943 3.197-7.14 7.139-7.14 0.771 0 1.511 0.126 2.206 0.351 2.862 0.931 4.933 3.616 4.933 6.789C25.896 43.708 22.699 46.905 18.756 46.905zM71.612 94.654l-5.016-0.109c0 0-0.678-3.129-2.893-6.262-2.212-3.128-5.965-6.257-12.109-6.257-0.094 0-0.184 0-0.271 0.006-0.091 0.003-0.177 0.008-0.263 0.01-0.021 0.003-0.045 0.003-0.068 0.003-0.021 0-0.044 0-0.066-0.003-0.087-0.002-0.177-0.007-0.263-0.01-0.09-0.006-0.18-0.006-0.27-0.006-6.146 0-9.897 3.129-12.111 6.257-2.216 3.133-2.896 6.262-2.896 6.262l-5.011 0.109-5.017 0.105c0 0 5.35-2.001 10.917-9.73 5.567-7.73 11.354-21.189 12.229-44.11-0.374-0.215-0.682-0.48-0.896-0.786-0.214-0.303-0.33-0.641-0.33-1V36.97v-2.161c0-0.62 0.353-1.179 0.931-1.596 0.574-0.42 1.376-0.695 2.27-0.738l0.008-4.628 0.003-4.628h0.237 0.236 0.06 0.236 0.236l0.004 4.628 0.004 4.628c0.897 0.043 1.695 0.318 2.272 0.738 0.578 0.417 0.931 0.977 0.931 1.596v2.161 2.162c0 0.36-0.119 0.698-0.333 1-0.211 0.306-0.519 0.571-0.894 0.786 0.874 22.921 6.663 36.38 12.231 44.11 5.565 7.729 10.916 9.73 10.916 9.73L71.612 94.654z" fill="#f4a424" data-fill-palette-color="accent"></path></svg></g></svg></g></svg></g></svg></g></svg></g><defs></defs></svg><rect width="395.52" height="247.2" fill="none" stroke="none" visibility="hidden"></rect></g></svg></g></svg>